VIDEO INFO

Format                           : AVI
Format/Info                      : Audio Video Interleave
File size                        : 885 MiB
Duration                         : 1h 32mn
Overall bit rate                 : 1 338 Kbps

Video
ID                               : 0
Format                           : MPEG-4 Visual
Format profile                   : Simple@L3
Format settings, BVOP            : No
Format settings, QPel            : No
Format settings, GMC             : No warppoints
Format settings, Matrix          : Default (H.263)
Codec ID                         : XVID
Codec ID/Hint                    : XviD
Duration                         : 1h 32mn
Bit rate                         : 1 198 Kbps
Width                            : 720 pixels
Height                           : 480 pixels
Display aspect ratio             : 3:2
Frame rate                       : 23.976 fps
Standard                         : NTSC
Color space                      : YUV
Chroma subsampling               : 4:2:0
Bit depth                        : 8 bits
Scan type                        : Progressive
Compression mode                 : Lossy
Bits/(Pixel*Frame)               : 0.145
Stream size                      : 792 MiB (89%)
Writing library                  : XviD 1.1.0 Beta2 (UTC 2005-04-04)

Audio
ID                               : 1
Format                           : MPEG Audio
Format version                   : Version 1
Format profile                   : Layer 3
Mode                             : Joint stereo
Mode extension                   : MS Stereo
Codec ID                         : 55
Codec ID/Hint                    : MP3
Duration                         : 1h 32mn
Bit rate mode                    : Constant
Bit rate                         : 128 Kbps
Channel(s)                       : 2 channels
Sampling rate                    : 48.0 KHz
Compression mode                 : Lossy
Stream size                      : 84.7 MiB (10%)
Alignment                        : Aligned on interleaves
Interleave, duration             : 24 ms (0.58 video frame)
Writing library                  : LAME3.96.1

--------------------------------------

Verenigde Staten
Horror / Thriller
92 minuten

geregisseerd door William Friedkin
met Carey Lowell, Jenny Seagrove en Dwier Brown

Een jong echtpaar huurt Seagrove in als oppas voor hun baby. Deze blijkt echter niet veel goeds van plan te zijn, ze offert baby's aan een magische boom in het bos.

-Ondertiteling (nederlands) bijgevoegd, zelf vertaald en bewerkt. Deze keer niet in de
film omdat sommige software niet wil doen wat het normaal doen moet, maar kon
deze jullie niet onthouden.

Veel plezier ermee.
